<svg height="497pt" viewBox="-55 0 496 497" width="497pt" xmlns="http://www.w3.org/2000/svg" xmlns:xlink="http://www.w3.org/1999/xlink"><linearGradient id="a"><stop offset="0" stop-color="#00efd1"/><stop offset="1" stop-color="#00acea"/></linearGradient><linearGradient id="b" gradientUnits="userSpaceOnUse" x1="193.894" x2="193.894" xlink:href="#a" y1="13" y2="487.894"/><linearGradient id="c" gradientUnits="userSpaceOnUse" x1="193.5" x2="193.5" xlink:href="#a" y1="13" y2="487.894"/><linearGradient id="d" gradientUnits="userSpaceOnUse" x1="193" x2="193" xlink:href="#a" y1="13" y2="487.894"/><path d="m193.894531 346.867188c54.015625 0 97.960938-43.847657 97.960938-97.742188s-43.945313-97.738281-97.960938-97.738281-97.960937 43.84375-97.960937 97.738281 43.945312 97.742188 97.960937 97.742188zm0-179.480469c45.113281.121093 81.601563 36.769531 81.519531 81.886719-.078124 45.113281-36.695312 81.632812-81.8125 81.59375-45.117187-.042969-81.667968-36.625-81.667968-81.742188.113281-45.183594 36.777344-81.75 81.960937-81.738281zm0 0" fill="url(#b)"/><path d="m38.953125 257h25.105469c3.976562 65 56.441406 117.972656 121.441406 121.960938v24.199218c0 4.417969 3.582031 8 8 8s8-3.582031 8-8v-24.199218c65.652344-4.054688 118.03125-56.320313 122.230469-121.960938h24.316406c4.417969 0 8-3.582031 8-8s-3.582031-8-8-8h-24.320313c-3.996093-65-56.226562-117.722656-122.226562-121.710938v-24.445312c0-4.417969-3.582031-8-8-8s-8 3.582031-8 8v24.445312c-65 3.988282-117.445312 56.710938-121.441406 121.710938h-25.105469c-4.417969 0-8 3.582031-8 8s3.582031 8 8 8zm154.941406-121.964844c63.007813 0 114.089844 51.082032 114.089844 114.089844 0 63.011719-51.082031 114.089844-114.089844 114.089844-63.011719 0-114.089843-51.082032-114.089843-114.089844.070312-62.980469 51.109374-114.015625 114.089843-114.089844zm0 0" fill="url(#c)"/><path d="m185.5 294.25v15.75c0 4.417969 3.582031 8 8 8s8-3.582031 8-8v-15.398438c19.199219-2.964843 34.523438-17.566406 38.40625-36.601562h13.59375c4.417969 0 8-3.582031 8-8s-3.582031-8-8-8h-13.199219c-3.066406-20.027344-18.777343-35.75-38.800781-38.835938v-14.164062c0-4.417969-3.582031-8-8-8s-8 3.582031-8 8v14.511719c-19.160156 3.796875-33.890625 19.183593-36.851562 38.488281h-16.148438c-4.417969 0-8 3.582031-8 8s3.582031 8 8 8h16.542969c3.742187 18.324219 18.113281 32.613281 36.457031 36.25zm-19.953125-36.25h19.953125v19.777344c-9.480469-2.945313-16.925781-10.324219-19.953125-19.777344zm35.953125 20.300781v-20.300781h21.898438c-3.246094 10.132812-11.550782 17.828125-21.898438 20.300781zm22.515625-36.300781h-22.515625v-22.539062c11.15625 2.660156 19.867188 11.378906 22.515625 22.539062zm-38.515625-22.015625v22.015625h-20.5625c2.480469-10.457031 10.296875-18.828125 20.5625-22.015625zm0 0" fill="url(#d)"/><path d="m386.5 8c0-4.417969-3.582031-8-8-8h-370c-4.417969 0-8 3.582031-8 8v481c0 4.417969 3.582031 8 8 8h370c4.417969 0 8-3.582031 8-8zm-16 474h-354v-466h354zm0 0" fill="url(#c)"/></svg>