<?xml version="1.0" encoding="utf-8"?>
<!-- Generator: Adobe Illustrator 19.0.0, SVG Export Plug-In . SVG Version: 6.00 Build 0)  -->
<svg xmlns="http://www.w3.org/2000/svg" xmlns:xlink="http://www.w3.org/1999/xlink" version="1.1" id="Layer_1" x="0px" y="0px" viewBox="0 2 98 98" style="enable-background:new 0 2 98 98;" xml:space="preserve" width="512" height="512">
<style type="text/css">
	.st0{fill:url(#SVGID_1_);}
	.st1{fill:url(#SVGID_2_);}
</style>
<g>
	<linearGradient id="SVGID_1_" gradientUnits="userSpaceOnUse" x1="49" y1="7" x2="49" y2="94.4763">
		<stop offset="0" style="stop-color:#00EFD1"/>
		<stop offset="1" style="stop-color:#00ACEA"/>
	</linearGradient>
	<path class="st0" d="M87.8,42.8l-5.8-1c-0.7-2.6-1.8-5.2-3.2-7.7l3.4-4.8c0.8-1.2,0.7-2.8-0.3-3.8l-7.4-7.4c-1-1-2.7-1.2-3.9-0.3   l-4.8,3.4c-2.4-1.3-5-2.4-7.7-3.2l-1-5.8c-0.2-1.4-1.5-2.5-3-2.5H43.8c-1.5,0-2.7,1.1-3,2.5l-1,5.8c-2.6,0.7-5.2,1.8-7.7,3.2   l-4.8-3.4c-1.2-0.8-2.8-0.7-3.8,0.3l-7.4,7.4c-1,1-1.2,2.7-0.3,3.8l3.4,4.8c-1.4,2.4-2.4,5-3.2,7.7l-5.8,1c-1.4,0.2-2.5,1.5-2.5,3   v10.4c0,1.5,1.1,2.7,2.5,3l5.8,1c0.7,2.6,1.8,5.2,3.2,7.7l-3.4,4.8c-0.8,1.2-0.7,2.8,0.3,3.8l7.4,7.4c1,1,2.7,1.2,3.8,0.3l4.8-3.4   c2.4,1.4,5,2.4,7.7,3.2l1,5.8c0.2,1.4,1.5,2.5,3,2.5h10.4c1.5,0,2.7-1.1,3-2.5l1-5.8c2.6-0.7,5.2-1.8,7.7-3.2l4.8,3.4   c1.2,0.8,2.8,0.7,3.8-0.3l7.4-7.4c1-1,1.2-2.7,0.3-3.9l-3.5-4.9c1.4-2.4,2.4-5,3.2-7.7l5.8-1c1.4-0.2,2.5-1.5,2.5-3V45.8   C90.3,44.3,89.2,43.1,87.8,42.8z M84.3,53.7L79,54.5c-1.2,0.2-2.2,1.1-2.4,2.3c-0.7,3.4-2.1,6.7-3.9,9.5c-0.7,1-0.6,2.4,0.1,3.4   l3.1,4.4l-3.8,3.8l-4.3-3c-1-0.7-2.3-0.7-3.3-0.1c-3,1.9-6.3,3.2-9.5,3.9c-1.2,0.3-2.1,1.2-2.3,2.4l-0.9,5.2h-5.3l-0.9-5.2   c-0.2-1.2-1.1-2.2-2.3-2.4c-3.4-0.7-6.7-2.1-9.5-3.9c-1-0.7-2.4-0.6-3.4,0.1l-4.3,3l-3.8-3.8l3-4.3c0.7-1,0.7-2.3,0.1-3.3   c-1.9-3-3.2-6.3-3.9-9.5c-0.3-1.2-1.2-2.1-2.4-2.3l-5.2-0.9v-5.3l5.2-0.9c1.2-0.2,2.2-1.1,2.4-2.3c0.7-3.4,2.1-6.7,3.9-9.5   c0.7-1,0.6-2.4-0.1-3.4l-3-4.3l3.8-3.8l4.3,3c1,0.7,2.3,0.7,3.3,0.1c3-1.9,6.3-3.2,9.5-3.9c1.2-0.3,2.1-1.2,2.3-2.4l0.9-5.2h5.3   l0.9,5.2c0.2,1.2,1.1,2.2,2.3,2.4c3.4,0.7,6.7,2.1,9.5,3.9c1,0.7,2.4,0.6,3.4-0.1l4.3-3.1l3.8,3.8l-3,4.3c-0.7,1-0.7,2.3-0.1,3.3   c1.9,3,3.2,6.3,3.9,9.5c0.3,1.2,1.2,2.1,2.4,2.3l5.2,0.9V53.7z"/>
	<linearGradient id="SVGID_2_" gradientUnits="userSpaceOnUse" x1="49.0468" y1="7" x2="49.0468" y2="94.4763">
		<stop offset="0" style="stop-color:#00EFD1"/>
		<stop offset="1" style="stop-color:#00ACEA"/>
	</linearGradient>
	<path class="st1" d="M49,34.5c-9.1,0-16.5,7.4-16.5,16.5c0,9.1,7.4,16.5,16.5,16.5S65.5,60.1,65.5,51C65.5,41.9,58.1,34.5,49,34.5z    M49,61.5c-5.8,0-10.5-4.7-10.5-10.5c0-5.8,4.7-10.5,10.5-10.5S59.5,45.2,59.5,51C59.5,56.8,54.8,61.5,49,61.5z"/>
</g>
</svg>
