<?xml version="1.0" encoding="utf-8"?>
<!-- Generator: Adobe Illustrator 19.0.0, SVG Export Plug-In . SVG Version: 6.00 Build 0)  -->
<svg xmlns="http://www.w3.org/2000/svg" xmlns:xlink="http://www.w3.org/1999/xlink" version="1.1" id="Layer_1" x="0px" y="0px" viewBox="0 2 98 98" style="enable-background:new 0 2 98 98;" xml:space="preserve" width="512" height="512">
<style type="text/css">
	.st0{fill:url(#SVGID_1_);}
</style>
<linearGradient id="SVGID_1_" gradientUnits="userSpaceOnUse" x1="49" y1="91" x2="49" y2="15" gradientTransform="matrix(1 0 0 -1 0 104)">
	<stop offset="0" style="stop-color:#00EFD1"/>
	<stop offset="1" style="stop-color:#00ACEA"/>
</linearGradient>
<path class="st0" d="M97.6,76.4L80.8,37.1c0,0,0,0,0-0.1c0,0,0-0.1-0.1-0.1c-0.1-0.1-0.1-0.2-0.2-0.3l-0.1-0.1  c-0.1-0.1-0.2-0.2-0.3-0.3c0,0,0,0-0.1-0.1s-0.3-0.2-0.4-0.3l-0.1-0.1c-0.1-0.1-0.2-0.1-0.3-0.2c-0.1,0-0.1,0-0.2-0.1  c-0.2-0.1-0.3-0.1-0.5-0.1l0,0l-20-2.9c-0.6-3.3-2.9-6-6-7.1V16c0-1.7-1.3-3-3-3s-3,1.3-3,3v9.3c-2.3,0.8-4.2,2.5-5.2,4.6l-20.9-3  l0,0l0,0l0,0c-0.1,0-0.3,0-0.4,0l0,0h-0.1c-0.1,0-0.1,0-0.2,0s-0.2,0-0.3,0.1c-0.1,0-0.1,0-0.2,0c-0.2,0-0.3,0.1-0.4,0.2l-0.1,0.1  c-0.1,0.1-0.2,0.1-0.3,0.2c-0.1,0-0.1,0.1-0.2,0.1c-0.1,0.1-0.2,0.2-0.3,0.2l-0.1,0.1c-0.1,0.1-0.2,0.3-0.3,0.4c0,0,0,0.1-0.1,0.1  c-0.1,0.1-0.1,0.2-0.1,0.3L0.4,67.3c-0.5,1.1-0.2,2.4,0.6,3.3l2.5,2.5C8,77.5,13.8,79.9,20,79.9c6.1,0,11.9-2.4,16.3-6.8l2.6-2.4  c0.9-0.9,1.2-2.2,0.7-3.4L24.9,33.6l15.7,2.3c0.9,4,4.5,7.1,8.9,7.1c3.4,0,6.4-1.9,8-4.7l16.3,2.4L58.5,76.4  c-0.5,1.1-0.2,2.4,0.6,3.3l2.5,2.5C66.1,86.6,71.9,89,78,89s12-2.4,16.4-6.8l2.5-2.5C97.8,78.8,98,77.5,97.6,76.4z M65.8,74.6  L78,45.9l12.2,28.6L65.8,74.6L65.8,74.6z M7.8,65.5L20,37.4l12.2,28.1H7.8z M11.2,71.5h17.5c-2.6,1.6-5.6,2.4-8.7,2.4  C16.8,73.9,13.8,73.1,11.2,71.5z M49.5,37c-1.7,0-3.1-1.4-3.1-3.1s1.4-3.1,3.1-3.1c1.7,0,3.1,1.4,3.1,3.1S51.2,37,49.5,37z   M69.3,80.6h17.5C84.2,82.2,81.2,83,78,83C74.9,83,71.9,82.2,69.3,80.6z"/>
</svg>
