<?xml version="1.0" encoding="utf-8"?>
<!-- Generator: Adobe Illustrator 19.0.0, SVG Export Plug-In . SVG Version: 6.00 Build 0)  -->
<svg xmlns="http://www.w3.org/2000/svg" xmlns:xlink="http://www.w3.org/1999/xlink" version="1.1" id="Layer_1" x="0px" y="0px" viewBox="0 2 98 98" style="enable-background:new 0 2 98 98;" xml:space="preserve" width="512" height="512">
<style type="text/css">
	.st0{fill:url(#SVGID_1_);}
</style>
<linearGradient id="SVGID_1_" gradientUnits="userSpaceOnUse" x1="49" y1="101.7071" x2="49" y2="4.2929" gradientTransform="matrix(1 0 0 -1 0 104)">
	<stop offset="0" style="stop-color:#00EFD1"/>
	<stop offset="1" style="stop-color:#00ACEA"/>
</linearGradient>
<path class="st0" d="M81.3,46.2c-0.5-1.1-1.6-1.9-2.8-1.9H63.4v-5.5h-0.1c0-1.3,0.6-2.6,1.6-3.5c4.4-3.6,6.9-8.9,6.9-14.4  c0-5.3-2.2-10.4-6.2-13.9C61.7,3.6,56.4,1.8,51,2.4c-8.6,1-15.5,7.9-16.5,16.6c-0.7,6.3,1.8,12.3,6.6,16.2c1.1,0.9,1.7,2.2,1.7,3.5  V39c0,0.3,0,0.5,0.1,0.7v4.7H27c-1.7,0-3,1.3-3,3v7.4l-8.3,20.4c-0.4,0.9-0.3,2,0.3,2.8c0.6,0.8,1.5,1.3,2.5,1.3l6.1-0.1l2.2,10.6  c0.3,1.4,1.5,2.4,2.9,2.4l9.6,0.1l0.3,4.6c0.1,1.6,1.4,2.8,3,2.8h31.5c1.7,0,3-1.3,3-3c0-4.5,0-16.5,0.2-18.9  c0.2-2.8,1.2-6.4,2.2-10.2C81.7,60.1,83.9,52.4,81.3,46.2z M40.5,19.6C41.2,13.8,45.8,9,51.6,8.4c3.7-0.4,7.3,0.7,10,3.2  c2.7,2.4,4.2,5.8,4.2,9.4c0,3.7-1.7,7.3-4.8,9.9c-1.6,1.4-2.7,3.2-3.3,5.1h-1.6v-6c1.5-0.2,2.6-1.4,2.6-3c0-1.7-1.3-3-3-3h-5.1  c-1.7,0-3,1.3-3,3c0,1.5,1.1,2.7,2.5,2.9V36h-1.7c-0.6-2.1-1.8-4-3.5-5.4C41.7,27.9,40.1,23.8,40.5,19.6z M48.9,42h8.5v2.4h-8.5V42z   M73.9,65.9c-1.1,4.1-2.2,8-2.4,11.5c-0.2,2.3-0.2,11.5-0.2,16.3H45.5l-0.3-4.6c-0.1-1.6-1.4-2.8-3-2.8l-10-0.1L30,75.6  c-0.3-1.4-1.5-2.4-2.9-2.4l0,0H23l6.8-16.7c0.1-0.4,0.2-0.7,0.2-1.1v-5h46.2C77,54.6,75.4,60.6,73.9,65.9z"/>
</svg>
