<?xml version="1.0" standalone="no"?>
<!DOCTYPE svg PUBLIC "-//W3C//DTD SVG 20010904//EN"
 "http://www.w3.org/TR/2001/REC-SVG-20010904/DTD/svg10.dtd">
<svg version="1.0" xmlns="http://www.w3.org/2000/svg"
 width="434.000000pt" height="434.000000pt" viewBox="0 0 434.000000 434.000000"
 preserveAspectRatio="xMidYMid meet">
<metadata>
Created by potrace 1.11, written by Peter Selinger 2001-2013
</metadata>
<g transform="translate(0.000000,434.000000) scale(0.100000,-0.100000)"
fill="#000000" stroke="none">
<path d="M645 4253 c-78 -15 -203 -71 -275 -122 -124 -88 -225 -239 -260 -389
-14 -60 -17 -215 -6 -277 39 -209 187 -400 376 -486 114 -52 271 -75 386 -56
45 7 142 37 172 53 15 8 32 14 37 14 6 0 30 15 54 33 l44 32 195 -197 c109
-110 200 -194 206 -190 6 3 -3 -12 -20 -33 -84 -106 -149 -271 -161 -408 -9
-99 -9 -87 0 -172 19 -189 106 -367 248 -505 40 -39 76 -70 80 -70 9 0 -3 -23
-72 -142 -53 -90 -106 -185 -127 -226 -18 -36 -21 -36 -112 -17 -43 9 -143 7
-194 -5 -49 -11 -146 -48 -156 -60 -3 -3 -21 -16 -42 -28 -44 -27 -98 -86
-142 -155 -130 -204 -91 -490 90 -656 107 -97 218 -141 366 -141 149 0 276 56
380 169 185 199 187 502 6 705 -26 30 -48 58 -48 64 0 6 124 231 215 389 0 1
36 -9 78 -22 392 -121 805 59 981 428 65 136 95 298 77 417 -10 70 -7 75 67
93 57 14 431 118 485 134 9 3 17 1 17 -5 0 -24 106 -125 159 -151 69 -35 109
-44 184 -43 178 2 333 134 367 311 31 164 -52 340 -195 409 -72 36 -103 44
-167 45 -203 3 -371 -143 -392 -342 -3 -24 -6 -45 -8 -46 -6 -5 -570 -156
-572 -153 -1 2 -15 28 -30 58 -223 439 -782 587 -1186 315 l-54 -36 -195 196
-196 196 16 27 c90 157 118 257 113 396 -10 296 -199 542 -484 631 -52 16
-255 28 -305 18z"/>
</g>
</svg>
