<?xml version="1.0"?>
<svg xmlns="http://www.w3.org/2000/svg" xmlns:xlink="http://www.w3.org/1999/xlink" viewBox="0 0 512 512" width="512" height="512"><linearGradient id="a" gradientUnits="userSpaceOnUse" x1="256.226" x2="256.226" y1="13.823" y2="488.022"><stop offset="0" stop-color="#00efd1"/><stop offset="1" stop-color="#00acea"/></linearGradient><path d="m383.452 195.193c0-17.325-14.638-32.193-31.963-32.193h-37.489v-22.021a79.491 79.491 0 0 0 12.2-9.176c.091-.085.152-.171.239-.258 24.946-24.947 24.932-67.1-.015-92.045-6.012-6.012-13.1-10.523-22.287-14.2l-7.888-3.155a9.551 9.551 0 0 0 -9.089 1 9.793 9.793 0 0 0 -4.16 8.288v38.307c0 1.41-.59 1.986-2 1.986s-2-.576-2-1.986v-38.307a10.3 10.3 0 0 0 -14.041-9.285l-7.88 3.13a61.219 61.219 0 0 0 -22.368 14.222 64.54 64.54 0 0 0 -18.791 46.022 64.639 64.639 0 0 0 18.77 46.071c.464.464.925.407 1.4 1.407h-39.29a67.859 67.859 0 0 0 -67.8 68.153v92.147c0 37.632 30.164 68.7 67.8 68.7h50.2v9.021a79.226 79.226 0 0 0 -12.154 9.177c-.09.084-.127.17-.215.257a65.8 65.8 0 0 0 .04 92.045c6.012 6.012 13.1 10.523 22.287 14.2l7.888 3.155a10.451 10.451 0 0 0 9.541-1 10.217 10.217 0 0 0 4.613-8.288v-38.307c0-1.41.59-1.986 2-1.986s2 .576 2 1.986v38.307a9.792 9.792 0 0 0 4.16 8.282 9.657 9.657 0 0 0 9.145 1l7.8-3.13a61.074 61.074 0 0 0 22.323-14.219c24.945-24.947 24.994-67.1.048-92.046a50.882 50.882 0 0 0 -12.476-9.493v-8.961h15.05c12.794 0 27.665-14.188 27.665-32.188a31.774 31.774 0 0 0 -5.333-17.513 34.644 34.644 0 0 0 14.4-27.537 31.563 31.563 0 0 0 -5.935-18.3 32.275 32.275 0 0 0 14.529-26.623 31.825 31.825 0 0 0 -5.551-17.857 32.465 32.465 0 0 0 14.627-26.789zm-134.408-141.55a35.533 35.533 0 0 1 9.956-7.171v23.268a22 22 0 0 0 44 0v-23.2c3 2.021 6.714 4.312 9.5 7.1 17.237 17.237 17.163 46.334.012 63.63a44.914 44.914 0 0 1 -12.618 8.49 10 10 0 0 0 -5.9 9.119v28.121h-26.994v-28.118a9.9 9.9 0 0 0 -5.791-9.119 38.694 38.694 0 0 1 -12.326-8.361c-17.283-17.28-17.12-46.479.161-63.759zm50.8 332.594a39.392 39.392 0 0 1 12.456 8.363c17.28 17.28 17.5 46.479.22 63.759a57.4 57.4 0 0 1 -9.52 7.169v-23.268a22 22 0 0 0 -44 0v23.2a37.735 37.735 0 0 1 -9.956-7.1c-17.237-17.237-17.389-46.334-.238-63.63a44.207 44.207 0 0 1 12.458-8.49 9.857 9.857 0 0 0 5.736-9.122v-15.118h27v15.118a9.947 9.947 0 0 0 5.84 9.119zm29.206-44.237h-132.25c-26.6 0-47.8-22.1-47.8-48.7v-92.147a47.836 47.836 0 0 1 47.8-48.153h50.2v10h-26.472a10 10 0 0 0 0 20h130.961a12 12 0 0 1 0 24h-12.413a10 10 0 0 0 0 20h.292c.962 1 1.986.67 3.05.67 6.373 0 11.963 5.792 11.963 12.165s-5.59 12.165-11.963 12.165h-12.413a9.913 9.913 0 0 0 -.474 19.818 9.923 9.923 0 0 0 4.293.953c6.373 0 11.963 5.742 11.963 12.114 0 6.7-5.755 11.115-7.666 12.115h-16.711a9.87 9.87 0 0 0 -1.006 19.7 9.913 9.913 0 0 0 4.349.964c6.372 0 11.962 5.795 11.962 12.168 0 6.699-5.754 11.168-7.665 12.168z" fill="url(#a)"/></svg>
