<?xml version="1.0" encoding="utf-8"?>
<!-- Generator: Adobe Illustrator 19.0.0, SVG Export Plug-In . SVG Version: 6.00 Build 0)  -->
<svg xmlns="http://www.w3.org/2000/svg" xmlns:xlink="http://www.w3.org/1999/xlink" version="1.1" id="Layer_1" x="0px" y="0px" viewBox="0 2 98 98" style="enable-background:new 0 2 98 98;" xml:space="preserve" width="512" height="512">
<style type="text/css">
	.st0{fill:url(#SVGID_1_);}
	.st1{fill:url(#SVGID_2_);}
</style>
<g>
	<linearGradient id="SVGID_1_" gradientUnits="userSpaceOnUse" x1="46.7" y1="4.5306" x2="46.7" y2="97.2809">
		<stop offset="0" style="stop-color:#00EFD1"/>
		<stop offset="1" style="stop-color:#00ACEA"/>
	</linearGradient>
	<path class="st0" d="M46.7,48.2c7.3,0,13.2-5.9,13.2-13.2S54,21.8,46.7,21.8S33.5,27.7,33.5,35S39.4,48.2,46.7,48.2z M46.7,27.8   c4,0,7.2,3.2,7.2,7.2s-3.2,7.2-7.2,7.2S39.5,39,39.5,35S42.7,27.8,46.7,27.8z"/>
	<linearGradient id="SVGID_2_" gradientUnits="userSpaceOnUse" x1="49" y1="4.5306" x2="49" y2="97.2809">
		<stop offset="0" style="stop-color:#00EFD1"/>
		<stop offset="1" style="stop-color:#00ACEA"/>
	</linearGradient>
	<path class="st1" d="M82.3,78L68.2,54.7c1-0.5,1.9-1.3,2.7-2.2c1.8-2.5,2-5.7,0.4-8.5c-0.3-0.5-0.2-1-0.1-1.2   c0.1-0.4,0.5-0.8,0.9-1c2.8-1.2,4.6-3.9,4.6-7c0-3.1-1.8-5.7-4.7-7c-0.5-0.2-0.7-0.6-0.8-0.8c-0.2-0.5-0.1-1,0.1-1.3   c1.6-2.6,1.5-5.8-0.3-8.3s-4.9-3.7-7.8-3c-0.5,0.1-1,0-1.3-0.3c-0.3-0.2-0.6-0.5-0.6-1.1C61,10,59,7.5,56.1,6.5   c-2.9-0.9-6-0.1-8,2.2c0,0,0,0,0,0.1c-0.4,0.5-0.9,0.5-1.2,0.5c-0.3,0-0.9,0-1.3-0.5c-2-2.3-5.1-3.2-8-2.2c-2.9,0.9-5,3.4-5.3,6.5   c-0.1,0.6-0.5,1-0.7,1.1c-0.2,0.2-0.7,0.4-1.3,0.3c-2.9-0.7-5.9,0.4-7.7,2.8c-1.8,2.5-2,5.7-0.4,8.5c0.3,0.5,0.2,1,0.1,1.2   c-0.1,0.4-0.5,0.8-0.9,1c-2.8,1.2-4.6,3.9-4.6,7s1.8,5.7,4.7,7c0.5,0.2,0.7,0.6,0.8,0.8c0.2,0.5,0.1,1-0.1,1.3   c-1.6,2.6-1.5,5.8,0.3,8.3s4.9,3.7,7.8,3c0,0,0,0,0.1,0L15.7,79.2c-0.6,1-0.6,2.3,0.1,3.3s1.9,1.4,3.1,1.2l13-3l3.4,12.9   c0.3,1.2,1.3,2,2.5,2.2c0.1,0,0.3,0,0.4,0c1,0,2-0.5,2.6-1.5l8.5-14.2l7.9,13.1c0.5,0.9,1.5,1.4,2.6,1.4c0.1,0,0.3,0,0.4,0   c1.2-0.2,2.2-1,2.5-2.2l3.4-12.9l13,3c1.2,0.3,2.4-0.2,3.1-1.2S82.9,79.1,82.3,78z M29,49.5c-0.9,0.2-1.4-0.4-1.6-0.6   c-0.2-0.3-0.5-0.9,0-1.7c1.1-1.9,1.4-4.2,0.6-6.3c-0.7-2-2.2-3.7-4.1-4.4c-0.9-0.4-1-1.1-1-1.4c0-0.3,0.1-1.1,1-1.5   c2-0.9,3.5-2.6,4.2-4.7c0.7-2.1,0.4-4.3-0.7-6.1c-0.5-0.9-0.1-1.6,0.1-1.8c0.2-0.3,0.7-0.7,1.6-0.5c2.1,0.5,4.3,0,6.1-1.2   c1.8-1.3,2.9-3.2,3.2-5.4c0.1-0.9,0.8-1.3,1.1-1.4s1-0.2,1.6,0.4c1.4,1.7,3.5,2.6,5.7,2.6s4.3-0.9,5.7-2.6c0.6-0.7,1.4-0.6,1.7-0.5   c0.3,0.1,1,0.4,1.1,1.4c0.2,2.2,1.4,4.1,3.1,5.4c1.8,1.3,4,1.7,6.2,1.2c0.9-0.2,1.4,0.4,1.6,0.6c0.2,0.3,0.5,0.9,0,1.7   c-1.1,1.9-1.4,4.2-0.6,6.3c0.7,2,2.2,3.7,4.1,4.4c0.9,0.4,1,1.1,1,1.4s-0.1,1.1-1,1.5c-2,0.9-3.5,2.6-4.2,4.7s-0.4,4.3,0.7,6.1   c0.5,0.9,0.1,1.6-0.1,1.8c-0.2,0.3-0.7,0.7-1.6,0.6c-2.1-0.5-4.3,0-6.1,1.2c-1.8,1.3-2.9,3.2-3.2,5.4c-0.1,0.9-0.8,1.3-1.1,1.4   c-0.3,0.1-1,0.2-1.6-0.4c-1.4-1.7-3.5-2.6-5.7-2.6s-4.3,1-5.7,2.6c-0.7,0.7-1.4,0.6-1.7,0.5c-0.3-0.1-1-0.4-1.1-1.4   c-0.2-2.2-1.4-4.1-3.1-5.4C33.4,49.4,31.2,49,29,49.5z M39.3,85.1L37,76.3c-0.4-1.6-2-2.5-3.6-2.2l-8.8,2.1L34,60.8   c0.9,1.1,2.1,1.9,3.4,2.3c0.6,0.2,1.2,0.3,1.8,0.3l6.5,10.8L39.3,85.1z M64.6,73c-1.6-0.4-3.2,0.6-3.6,2.2L58.7,84L45.1,61.4   c0.2-0.2,0.4-0.3,0.5-0.5c0.4-0.5,0.9-0.5,1.2-0.5s0.8,0.1,1.2,0.5c1.5,1.7,3.5,2.6,5.6,2.6c0.8,0,1.6-0.1,2.3-0.4   c2.9-0.9,5-3.4,5.3-6.5c0.1-0.5,0.3-0.9,0.6-1L73.4,75L64.6,73z"/>
</g>
</svg>
